<svg width="244" height="67" viewBox="0 0 244 67" fill="none" xmlns="http://www.w3.org/2000/svg">
<path d="M242.35 38.0256C240.53 36.4621 237.824 36.7433 236.154 38.481L235.5 39.1607L234.846 38.481C233.179 36.7433 230.47 36.4621 228.651 38.0256C226.565 39.8203 226.456 43.0412 228.322 44.9865L234.747 51.6761C235.162 52.108 235.836 52.108 236.251 51.6761L242.675 44.9865C244.545 43.0412 244.435 39.8203 242.35 38.0256Z" fill="white"/>
<path d="M5.376 18.4H16.896V24.16H7.68L7.536 24.448L15.216 38.464C16.784 41.28 17.568 43.424 17.568 44.896C17.568 48.128 16.496 50.496 14.352 52H1.632V46.432H11.568L11.712 46.144L3.072 30.64C1.824 28.4 1.2 26.576 1.2 25.168C1.2 21.84 2.592 19.584 5.376 18.4ZM31.3294 27.472H36.4174C37.8254 29.264 38.7854 31.056 39.2974 32.848C39.8094 34.64 40.0654 36.88 40.0654 39.568V52H33.6814V39.088C33.6814 36.048 33.2654 33.856 32.4334 32.512H27.0574V52H20.6734V27.472H25.6654L26.5294 29.2C27.2334 28.56 27.8894 28.112 28.4974 27.856C29.1374 27.6 30.0814 27.472 31.3294 27.472ZM55.1051 32.512H51.5051C51.0251 33.088 50.6251 33.888 50.3051 34.912C50.0171 35.936 49.8731 36.928 49.8731 37.888H56.7371C56.8011 36.928 56.6731 35.936 56.3531 34.912C56.0331 33.856 55.6171 33.056 55.1051 32.512ZM61.6331 46.96V52H49.4411C47.2011 50.496 45.6171 48.64 44.6891 46.432C43.7931 44.192 43.3451 41.936 43.3451 39.664C43.3451 34.416 45.3291 30.352 49.2971 27.472H57.0731C59.2171 29.04 60.6731 30.704 61.4411 32.464C62.2091 34.224 62.5931 36 62.5931 37.792C62.5931 39.584 62.4491 41.12 62.1611 42.4H50.2091C50.3051 43.136 50.5771 43.984 51.0251 44.944C51.5051 45.872 52.0171 46.544 52.5611 46.96H61.6331ZM77.382 40.912H72.246C71.574 41.744 71.238 42.784 71.238 44.032C71.238 45.28 71.59 46.256 72.294 46.96H77.382V40.912ZM67.062 27.472H78.966C80.886 28.624 82.15 29.952 82.758 31.456C83.366 32.928 83.67 34.944 83.67 37.504V44.704C83.67 47.36 83.734 49.792 83.862 52H78.39L77.526 50.272C76.278 51.424 74.518 52 72.246 52H69.222C66.502 50.208 65.142 47.632 65.142 44.272C65.142 40.88 66.534 38.208 69.318 36.256H73.83C75.078 36.256 76.246 36.64 77.334 37.408V35.008C77.334 33.76 76.79 32.928 75.702 32.512H67.062V27.472ZM87.7984 52V18.4H94.1824V36.208H94.8544L99.3664 27.472H105.606L99.9424 38.176L105.654 52H99.3184L94.9024 41.248H94.1824V52H87.7984ZM119.42 27.472H123.98C125.388 29.264 126.348 31.056 126.86 32.848C127.372 34.64 127.628 36.88 127.628 39.568V52H121.244V39.088C121.244 36.048 120.828 33.856 119.996 32.512H114.62V52H108.236V18.4H114.62V29.2C115.324 28.56 115.98 28.112 116.588 27.856C117.228 27.6 118.172 27.472 119.42 27.472ZM142.668 32.512H139.068C138.588 33.088 138.188 33.888 137.868 34.912C137.58 35.936 137.436 36.928 137.436 37.888H144.3C144.364 36.928 144.236 35.936 143.916 34.912C143.596 33.856 143.18 33.056 142.668 32.512ZM149.196 46.96V52H137.004C134.764 50.496 133.18 48.64 132.252 46.432C131.356 44.192 130.908 41.936 130.908 39.664C130.908 34.416 132.892 30.352 136.86 27.472H144.636C146.78 29.04 148.236 30.704 149.004 32.464C149.772 34.224 150.156 36 150.156 37.792C150.156 39.584 150.012 41.12 149.724 42.4H137.772C137.868 43.136 138.14 43.984 138.588 44.944C139.068 45.872 139.58 46.544 140.124 46.96H149.196ZM164.945 40.912H159.809C159.137 41.744 158.801 42.784 158.801 44.032C158.801 45.28 159.153 46.256 159.857 46.96H164.945V40.912ZM154.625 27.472H166.529C168.449 28.624 169.713 29.952 170.321 31.456C170.929 32.928 171.233 34.944 171.233 37.504V44.704C171.233 47.36 171.297 49.792 171.425 52H165.953L165.089 50.272C163.841 51.424 162.081 52 159.809 52H156.785C154.065 50.208 152.705 47.632 152.705 44.272C152.705 40.88 154.097 38.208 156.881 36.256H161.393C162.641 36.256 163.809 36.64 164.897 37.408V35.008C164.897 33.76 164.353 32.928 163.265 32.512H154.625V27.472ZM175.409 52V27.472H179.969L181.169 30.064C182.449 28.336 184.065 27.472 186.017 27.472H187.889V33.904H181.793V52H175.409ZM192.082 41.296V32.512H188.77V27.472H192.082V20.8H198.466V27.472H202.402V32.512H198.466V42.832C198.466 44.784 198.802 46.16 199.474 46.96H202.402V52H195.586C193.89 50.432 192.866 48.736 192.514 46.912C192.226 45.376 192.082 43.504 192.082 41.296ZM207.527 27.472H218.135V32.512H210.647L215.207 39.28C217.255 42.192 218.391 44.192 218.615 45.28C218.743 45.792 218.807 46.32 218.807 46.864C218.807 49.136 217.959 50.848 216.263 52H204.023V46.96H212.807L207.671 39.424C207.447 39.072 207.095 38.576 206.615 37.936C206.167 37.296 205.815 36.784 205.559 36.4C205.303 35.984 205.127 35.68 205.031 35.488C204.935 35.296 204.807 35.056 204.646 34.768C204.487 34.448 204.375 34.176 204.311 33.952C204.183 33.344 204.119 32.848 204.119 32.464C204.119 30.128 205.255 28.464 207.527 27.472Z" fill="white"/>
</svg>
