<svg width="52" height="67" viewBox="0 0 52 67" fill="none" xmlns="http://www.w3.org/2000/svg">
<path d="M50.3499 38.0256C48.5304 36.4621 45.8244 36.7433 44.1543 38.481L43.5002 39.1607L42.8462 38.481C41.1794 36.7433 38.4701 36.4621 36.6506 38.0256C34.5655 39.8203 34.4559 43.0412 36.3219 44.9865L42.7465 51.6761C43.1616 52.108 43.8356 52.108 44.2506 51.6761L50.6753 44.9865C52.5446 43.0412 52.435 39.8203 50.3499 38.0256Z" fill="#1D1D1D"/>
<path d="M5.376 18.4H16.896V24.16H7.68L7.536 24.448L15.216 38.464C16.784 41.28 17.568 43.424 17.568 44.896C17.568 48.128 16.496 50.496 14.352 52H1.632V46.432H11.568L11.712 46.144L3.072 30.64C1.824 28.4 1.2 26.576 1.2 25.168C1.2 21.84 2.592 19.584 5.376 18.4ZM22.6046 27.472H33.2126V32.512H25.7246L30.2846 39.28C32.3326 42.192 33.4686 44.192 33.6926 45.28C33.8206 45.792 33.8846 46.32 33.8846 46.864C33.8846 49.136 33.0366 50.848 31.3406 52H19.1006V46.96H27.8846L22.7486 39.424C22.5246 39.072 22.1726 38.576 21.6926 37.936C21.2446 37.296 20.8926 36.784 20.6366 36.4C20.3806 35.984 20.2046 35.68 20.1086 35.488C20.0126 35.296 19.8846 35.056 19.7246 34.768C19.5646 34.448 19.4526 34.176 19.3886 33.952C19.2606 33.344 19.1966 32.848 19.1966 32.464C19.1966 30.128 20.3326 28.464 22.6046 27.472Z" fill="#1D1D1D"/>
</svg>
